<svg width="100" height="99" viewBox="0 0 100 99" fill="none" xmlns="http://www.w3.org/2000/svg">
<circle cx="49.6055" cy="49.5" r="49.5" fill="white"/>
<path d="M30.5255 43.8C32.5921 43.8 34.2121 44.3733 35.3855 45.52C36.5721 46.6533 37.1655 48.28 37.1655 50.4C37.1655 52.52 36.5721 54.1533 35.3855 55.3C34.2121 56.4333 32.5921 57 30.5255 57H26.2655V43.8H30.5255ZM30.6855 55.5C32.1921 55.5 33.3655 55.0533 34.2055 54.16C35.0588 53.2533 35.4855 52 35.4855 50.4C35.4855 48.8 35.0588 47.5533 34.2055 46.66C33.3655 45.7533 32.1921 45.3 30.6855 45.3H27.8655V55.5H30.6855ZM40.2819 57V47H41.5819L41.8019 48.64C42.0819 48.0267 42.4885 47.5667 43.0219 47.26C43.5685 46.9533 44.2285 46.8 45.0019 46.8C45.1752 46.8 45.3619 46.8133 45.5619 46.84C45.7752 46.8667 45.9552 46.92 46.1019 47L45.8219 48.46C45.6752 48.4067 45.5152 48.3667 45.3419 48.34C45.1685 48.3133 44.9219 48.3 44.6019 48.3C44.1885 48.3 43.7685 48.42 43.3419 48.66C42.9285 48.9 42.5819 49.2667 42.3019 49.76C42.0219 50.24 41.8819 50.8533 41.8819 51.6V57H40.2819ZM54.0125 50.54C54.0125 49.7933 53.8125 49.22 53.4125 48.82C53.0125 48.4067 52.4458 48.2 51.7125 48.2C51.0192 48.2 50.4325 48.3533 49.9525 48.66C49.4725 48.9533 49.1192 49.4333 48.8925 50.1L47.5925 49.3C47.8592 48.5533 48.3525 47.9533 49.0725 47.5C49.7925 47.0333 50.6858 46.8 51.7525 46.8C52.4725 46.8 53.1258 46.9267 53.7125 47.18C54.2992 47.42 54.7592 47.7933 55.0925 48.3C55.4392 48.7933 55.6125 49.4333 55.6125 50.22V55.06C55.6125 55.54 55.8658 55.78 56.3725 55.78C56.6258 55.78 56.8725 55.7467 57.1125 55.68L57.0325 56.94C56.7658 57.0733 56.4192 57.14 55.9925 57.14C55.6058 57.14 55.2592 57.0667 54.9525 56.92C54.6458 56.7733 54.4058 56.5533 54.2325 56.26C54.0592 55.9533 53.9725 55.5733 53.9725 55.12V54.92L54.3725 54.98C54.2125 55.5 53.9392 55.9267 53.5525 56.26C53.1658 56.58 52.7325 56.82 52.2525 56.98C51.7725 57.1267 51.2992 57.2 50.8325 57.2C50.2458 57.2 49.6992 57.1 49.1925 56.9C48.6858 56.7 48.2792 56.4 47.9725 56C47.6792 55.5867 47.5325 55.08 47.5325 54.48C47.5325 53.7333 47.7792 53.12 48.2725 52.64C48.7792 52.1467 49.4792 51.8133 50.3725 51.64L54.3325 50.86V52.18L51.1125 52.84C50.4592 52.9733 49.9725 53.16 49.6525 53.4C49.3325 53.64 49.1725 53.9733 49.1725 54.4C49.1725 54.8133 49.3325 55.1533 49.6525 55.42C49.9858 55.6733 50.4525 55.8 51.0525 55.8C51.4392 55.8 51.8058 55.7533 52.1525 55.66C52.5125 55.5533 52.8325 55.4 53.1125 55.2C53.3925 54.9867 53.6125 54.7267 53.7725 54.42C53.9325 54.1 54.0125 53.7267 54.0125 53.3V50.54ZM67.9206 45.16L68.2806 46.58C68.2673 46.58 68.2473 46.58 68.2206 46.58C68.194 46.58 68.1673 46.58 68.1406 46.58C67.4873 46.58 66.9806 46.7133 66.6206 46.98C66.274 47.2333 66.1006 47.6467 66.1006 48.22L65.1206 47.72C65.1206 47.2 65.2406 46.7467 65.4806 46.36C65.7206 45.9733 66.0473 45.68 66.4606 45.48C66.874 45.2667 67.3273 45.16 67.8206 45.16C67.834 45.16 67.8473 45.16 67.8606 45.16C67.8873 45.16 67.9073 45.16 67.9206 45.16ZM64.8806 55.72C65.8273 55.72 66.5673 55.94 67.1006 56.38C67.634 56.8067 67.9006 57.38 67.9006 58.1C67.9006 58.7533 67.6806 59.32 67.2406 59.8C66.814 60.28 66.234 60.6467 65.5006 60.9C64.7806 61.1667 63.9673 61.3 63.0606 61.3C61.4873 61.3 60.3073 61.0333 59.5206 60.5C58.7473 59.9667 58.3606 59.3267 58.3606 58.58C58.3606 58.0467 58.534 57.5667 58.8806 57.14C59.2406 56.7267 59.8406 56.4933 60.6806 56.44L60.5406 56.74C60.0873 56.62 59.7006 56.42 59.3806 56.14C59.074 55.8467 58.9206 55.4267 58.9206 54.88C58.9206 54.3333 59.1206 53.8667 59.5206 53.48C59.934 53.08 60.5406 52.8333 61.3406 52.74L62.4006 53.28H62.2006C61.5473 53.3467 61.0806 53.5133 60.8006 53.78C60.534 54.0333 60.4006 54.3133 60.4006 54.62C60.4006 54.9933 60.534 55.2733 60.8006 55.46C61.0806 55.6333 61.4673 55.72 61.9606 55.72H64.8806ZM63.0406 59.96C63.814 59.96 64.4473 59.88 64.9406 59.72C65.4473 59.56 65.8206 59.3533 66.0606 59.1C66.3006 58.8467 66.4206 58.5733 66.4206 58.28C66.4206 57.92 66.274 57.6333 65.9806 57.42C65.7006 57.2067 65.1873 57.1 64.4406 57.1H61.3606C60.934 57.1 60.574 57.2067 60.2806 57.42C59.9873 57.6467 59.8406 57.9533 59.8406 58.34C59.8406 58.8333 60.1206 59.2267 60.6806 59.52C61.254 59.8133 62.0406 59.96 63.0406 59.96ZM62.9006 46.8C63.7006 46.8 64.4073 46.9467 65.0206 47.24C65.6473 47.52 66.134 47.9133 66.4806 48.42C66.8273 48.9267 67.0006 49.5133 67.0006 50.18C67.0006 50.8333 66.8273 51.42 66.4806 51.94C66.134 52.4467 65.6473 52.8467 65.0206 53.14C64.4073 53.42 63.7006 53.56 62.9006 53.56C61.5806 53.56 60.5673 53.2467 59.8606 52.62C59.154 51.98 58.8006 51.1667 58.8006 50.18C58.8006 49.5133 58.974 48.9267 59.3206 48.42C59.6806 47.9133 60.1673 47.52 60.7806 47.24C61.394 46.9467 62.1006 46.8 62.9006 46.8ZM62.9006 48.1C62.2073 48.1 61.6273 48.2933 61.1606 48.68C60.694 49.0533 60.4606 49.5533 60.4606 50.18C60.4606 50.7933 60.694 51.2933 61.1606 51.68C61.6273 52.0667 62.2073 52.26 62.9006 52.26C63.594 52.26 64.174 52.0667 64.6406 51.68C65.1073 51.2933 65.3406 50.7933 65.3406 50.18C65.3406 49.5533 65.1073 49.0533 64.6406 48.68C64.174 48.2933 63.594 48.1 62.9006 48.1Z" fill="black" fill-opacity="0.5"/>
</svg>
