<svg width="99" height="99" viewBox="0 0 99 99" fill="none" xmlns="http://www.w3.org/2000/svg">
<circle cx="49.5" cy="49.5" r="49.5" fill="white"/>
<path d="M26.5879 48.5875C25.8066 49.3687 25.8066 50.6375 26.5879 51.4187L38.5879 63.4187C39.3691 64.2 40.6379 64.2 41.4191 63.4187C42.2004 62.6375 42.2004 61.3687 41.4191 60.5875L30.8316 50L41.4129 39.4125C42.1941 38.6312 42.1941 37.3625 41.4129 36.5812C40.6316 35.8 39.3629 35.8 38.5816 36.5812L26.5816 48.5812L26.5879 48.5875Z" fill="black"/>
<path d="M72.6465 48.5922C73.3887 49.3734 73.3887 50.6422 72.6465 51.4234L61.2465 63.4234C60.5043 64.2047 59.299 64.2047 58.5568 63.4234C57.8146 62.6422 57.8146 61.3734 58.5568 60.5922L68.6149 50.0047L58.5627 39.4172C57.8205 38.6359 57.8205 37.3672 58.5627 36.5859C59.3049 35.8047 60.5102 35.8047 61.2524 36.5859L72.6524 48.5859L72.6465 48.5922Z" fill="black"/>
</svg>
